<svg width="148" height="40" viewBox="0 0 148 40" fill="none" xmlns="http://www.w3.org/2000/svg">
	<path d="M0 10C0 4.47715 4.47715 0 10 0H30C35.5228 0 40 4.47715 40 10V30C40 35.5228 35.5228 40 30 40H10C4.47715 40 0 35.5228 0 30V10Z" fill="#6F4BFE" />
	<path d="M20.0057 13.3183C20.3335 13.4372 20.6865 13.5323 21.0647 13.6037C22.1489 13.8177 23.2079 13.782 24.2417 13.4966C25.225 13.235 25.9436 12.8069 26.3975 12.2123C26.7001 11.808 26.8261 11.5226 26.7757 11.3561C26.4983 11.1896 25.9058 11.0945 24.9981 11.0707C23.687 11.0707 22.7415 11.2253 22.1615 11.5345C21.506 11.8913 20.9008 12.355 20.3461 12.9258C20.2201 13.0685 20.1066 13.1993 20.0057 13.3183ZM19.5141 18.4912C18.8333 18.6814 18.1903 18.9193 17.5852 19.2047C16.6271 19.6804 15.6942 20.3701 14.7865 21.2739C13.9292 22.1063 13.4249 22.9744 13.2736 23.8782C13.1223 24.8057 13.1854 25.5906 13.4627 26.2327C13.7401 26.8511 14.4461 27.5051 15.5807 28.1949C16.6649 28.8608 18.1273 29.0749 19.9679 28.837C21.8842 28.5754 23.3088 28.0759 24.2417 27.3387C24.5695 27.1008 24.8594 26.863 25.1116 26.6252C25.3637 26.3635 25.5402 26.1733 25.6411 26.0543C25.7419 25.9354 25.805 25.8522 25.8302 25.8046L26.0571 25.1268C26.158 24.8652 26.3471 24.6749 26.6244 24.556C26.9018 24.4133 27.1791 24.3895 27.4565 24.4846C27.759 24.5798 27.9734 24.7581 28.0994 25.0198C28.2255 25.2814 28.2381 25.543 28.1373 25.8046L27.8725 26.4824C27.6456 27.1246 26.9018 27.9451 25.6411 28.944C24.3804 29.943 22.5902 30.5851 20.2705 30.8705C17.8752 31.2035 15.9085 30.8943 14.3704 29.943C12.8576 29.0154 11.8742 28.0403 11.4204 27.0176C10.9918 26.0187 10.8909 24.8652 11.1178 23.5571C11.3448 22.2252 12.0381 20.9885 13.198 19.8468C14.2822 18.7766 15.4042 17.9561 16.564 17.3852C17.0431 17.1474 17.56 16.9334 18.1147 16.7431C18.0138 16.4815 17.9256 16.2199 17.85 15.9582C17.6735 15.4112 17.56 14.9237 17.5096 14.4955C17.2574 14.3766 17.0179 14.2339 16.791 14.0674C15.7824 13.3777 15.1395 12.9139 14.8621 12.6761L14.5595 12.355C14.3578 12.141 14.257 11.8913 14.257 11.6058C14.2822 11.3204 14.4082 11.0826 14.6352 10.8923C14.8621 10.7021 15.1268 10.6188 15.4294 10.6426C15.732 10.6426 15.9841 10.7377 16.1858 10.928L16.4884 11.2491C16.6397 11.3918 17.1566 11.7604 18.0391 12.355C18.2156 12.0934 18.4425 11.8199 18.7198 11.5345C19.4258 10.7972 20.2075 10.2026 21.0647 9.75073C21.9724 9.2275 23.2962 8.97777 25.0359 9.00155C25.9689 9.02534 26.7379 9.13236 27.343 9.32263C27.9734 9.48911 28.4398 9.84587 28.7424 10.3929C29.2215 11.2967 29.0324 12.3075 28.1751 13.4253C27.4187 14.4004 26.3218 15.0901 24.8847 15.4945C23.4727 15.875 22.0355 15.9107 20.5731 15.6015C20.3714 15.5777 20.1696 15.5301 19.9679 15.4588C20.0436 15.7204 20.1696 15.982 20.3461 16.2436C21.8085 16.0296 22.9306 16.1247 23.7122 16.529C23.7374 16.529 23.7626 16.5409 23.7878 16.5647C24.9981 17.1593 25.3637 17.8609 24.8847 18.6696C24.809 18.7647 24.7334 18.8598 24.6577 18.955C24.6073 19.0263 24.5443 19.0858 24.4686 19.1333C24.4182 19.1809 24.3426 19.2404 24.2417 19.3117C24.1408 19.3593 24.0526 19.395 23.9769 19.4187C23.9265 19.4425 23.8383 19.4782 23.7122 19.5258C23.5861 19.5496 23.4979 19.5614 23.4475 19.5614C23.4222 19.5614 23.334 19.5852 23.1827 19.6328C23.0566 19.6566 22.9684 19.6685 22.918 19.6685C21.8842 19.8825 20.8252 19.5614 19.741 18.7052C19.6654 18.6339 19.5897 18.5625 19.5141 18.4912Z" fill="white" />
	<path d="M139.081 26.9701V19.4501H137.423V17.1101H139.081V16.4701C139.081 15.7234 139.297 15.0767 139.728 14.5301C140.16 13.9834 140.726 13.5634 141.427 13.2701C142.128 12.9634 142.876 12.8101 143.672 12.8101C144.643 12.8101 145.458 12.9034 146.119 13.0901C146.793 13.2634 147.42 13.5234 148 13.8701L146.584 16.0101C146.207 15.7567 145.789 15.5634 145.33 15.4301C144.885 15.2967 144.387 15.2301 143.834 15.2301C143.214 15.2301 142.769 15.3767 142.499 15.6701C142.243 15.9634 142.115 16.3167 142.115 16.7301V17.1101H146.018L145.998 19.4501H142.115V26.9701H139.081ZM144.885 26.9701V17.1101H147.919V26.9701H144.885Z" fill="black" />
	<path d="M133.232 26.9701V24.1301H136.346V26.9701H133.232Z" fill="black" />
	<path d="M128.604 26.9701L128.362 25.8101V20.7101C128.362 20.2435 128.193 19.9101 127.856 19.7101C127.519 19.5101 127.101 19.4101 126.602 19.4101C126.077 19.4101 125.517 19.5101 124.924 19.7101C124.331 19.8968 123.832 20.1301 123.427 20.4101L122.133 18.2901C122.928 17.7701 123.697 17.4101 124.438 17.2101C125.193 16.9968 126.002 16.8901 126.865 16.8901C128.281 16.8901 129.386 17.2368 130.182 17.9301C130.991 18.6101 131.395 19.5368 131.395 20.7101V26.9701H128.604ZM125.793 27.1901C125.079 27.1901 124.425 27.0568 123.832 26.7901C123.252 26.5101 122.787 26.1168 122.436 25.6101C122.099 25.1035 121.931 24.5168 121.931 23.8501C121.931 23.2768 122.052 22.7768 122.295 22.3501C122.551 21.9235 122.888 21.5968 123.306 21.3701C123.616 21.1968 123.967 21.0701 124.358 20.9901C124.748 20.9101 125.166 20.8701 125.611 20.8701H128.604V23.0901H126.056C125.895 23.0901 125.746 23.1035 125.611 23.1301C125.49 23.1568 125.382 23.2035 125.288 23.2701C125.193 23.3368 125.119 23.4235 125.065 23.5301C125.011 23.6235 124.984 23.7301 124.984 23.8501C124.984 24.1301 125.099 24.3568 125.328 24.5301C125.571 24.6901 125.888 24.7701 126.279 24.7701C126.656 24.7701 127 24.6968 127.31 24.5501C127.634 24.3901 127.89 24.1768 128.079 23.9101C128.267 23.6435 128.362 23.3368 128.362 22.9901L129.009 24.6901C128.753 25.3701 128.443 25.8901 128.079 26.2501C127.728 26.6101 127.351 26.8568 126.946 26.9901C126.555 27.1235 126.171 27.1901 125.793 27.1901Z" fill="black" />
	<path d="M117.101 26.97V17.11H120.155V26.97H117.101ZM117.081 15.75V13.03H120.195V15.75H117.081Z" fill="black" />
	<path d="M113.525 27.1902C112.958 27.1902 112.419 27.0835 111.907 26.8702C111.394 26.6568 110.976 26.3102 110.653 25.8302C110.343 25.3368 110.188 24.6702 110.188 23.8302V15.0502L113.262 13.4302V22.9702C113.262 23.5568 113.336 23.9968 113.484 24.2902C113.632 24.5835 113.929 24.7302 114.374 24.7302C114.509 24.7302 114.657 24.7168 114.819 24.6902C114.981 24.6635 115.156 24.6235 115.345 24.5702V26.8702C115.048 26.9768 114.751 27.0568 114.455 27.1102C114.158 27.1635 113.848 27.1902 113.525 27.1902ZM108.529 19.4502V17.1102H115.345V19.4502H108.529Z" fill="black" />
	<path d="M97.7666 26.9701V17.1101H100.82V19.4301H100.416C100.578 18.7635 100.834 18.2501 101.184 17.8901C101.535 17.5168 101.926 17.2568 102.357 17.1101C102.802 16.9635 103.234 16.8901 103.652 16.8901C104.811 16.8901 105.714 17.2101 106.362 17.8501C107.009 18.4768 107.332 19.3301 107.332 20.4101V26.9701H104.279V21.5301C104.279 20.8235 104.151 20.3101 103.894 19.9901C103.652 19.6701 103.254 19.5101 102.701 19.5101C102.27 19.5101 101.912 19.6101 101.629 19.8101C101.36 20.0101 101.157 20.3235 101.023 20.7501C100.888 21.1635 100.82 21.7035 100.82 22.3701V26.9701H97.7666Z" fill="black" />
	<path d="M91.417 27.1901C90.5002 27.1901 89.7182 27.0501 89.071 26.7701C88.4239 26.4768 87.898 26.0901 87.4936 25.6101C87.0891 25.1168 86.7925 24.5701 86.6037 23.9701C86.4285 23.3568 86.3408 22.7301 86.3408 22.0901C86.3408 21.4768 86.4285 20.8635 86.6037 20.2501C86.7925 19.6368 87.0756 19.0768 87.4531 18.5701C87.8441 18.0635 88.3497 17.6568 88.9699 17.3501C89.6036 17.0435 90.3653 16.8901 91.2552 16.8901C92.0372 16.8901 92.7248 17.0235 93.318 17.2901C93.9112 17.5435 94.4033 17.9035 94.7943 18.3701C95.1988 18.8368 95.5021 19.3901 95.7044 20.0301C95.9066 20.6701 96.0077 21.3701 96.0077 22.1301C96.0077 22.2635 96.001 22.4035 95.9875 22.5501C95.9875 22.6968 95.974 22.8768 95.9471 23.0901H89.3946C89.4755 23.6235 89.7249 24.0101 90.1429 24.2501C90.5743 24.4901 91.0664 24.6101 91.6192 24.6101C92.1046 24.6101 92.6034 24.5301 93.1157 24.3701C93.6281 24.1968 94.073 23.9635 94.4505 23.6701L95.7448 25.7901C95.219 26.1368 94.7404 26.4168 94.3089 26.6301C93.8775 26.8301 93.4326 26.9701 92.9742 27.0501C92.5293 27.1435 92.0102 27.1901 91.417 27.1901ZM93.0146 21.5901C93.0416 21.4835 93.0618 21.3768 93.0753 21.2701C93.1023 21.1635 93.1157 21.0635 93.1157 20.9701C93.1157 20.7168 93.0686 20.4968 92.9742 20.3101C92.8798 20.1101 92.745 19.9435 92.5697 19.8101C92.4079 19.6768 92.2192 19.5768 92.0034 19.5101C91.7877 19.4301 91.5585 19.3901 91.3158 19.3901C90.8709 19.3901 90.5069 19.4701 90.2238 19.6301C89.9541 19.7901 89.7519 19.9835 89.6171 20.2101C89.4822 20.4368 89.3946 20.6568 89.3541 20.8701H94.0258L93.0146 21.5901Z" fill="black" />
	<path d="M78.9507 27.19C78.0878 27.19 77.353 26.97 76.7463 26.53C76.1396 26.0767 75.6745 25.4634 75.3509 24.69C75.0408 23.9034 74.8857 23.0167 74.8857 22.03C74.8857 20.9234 75.0678 19.99 75.4318 19.23C75.7958 18.47 76.2879 17.89 76.9081 17.49C77.5283 17.09 78.2092 16.89 78.9507 16.89C79.4226 16.89 79.881 16.99 80.3259 17.19C80.7708 17.39 81.1551 17.7167 81.4787 18.17C81.8022 18.6234 82.018 19.2434 82.1258 20.03L81.5798 19.59V13.03H84.6133V26.97H81.5798V24.53L82.2067 23.93C82.0449 24.85 81.782 25.5434 81.418 26.01C81.054 26.4767 80.6495 26.79 80.2046 26.95C79.7731 27.11 79.3552 27.19 78.9507 27.19ZM79.9012 24.43C80.3192 24.43 80.6697 24.3367 80.9528 24.15C81.2495 23.95 81.4719 23.67 81.6202 23.31C81.782 22.95 81.8629 22.5234 81.8629 22.03C81.8629 21.5367 81.782 21.1167 81.6202 20.77C81.4719 20.41 81.2495 20.1367 80.9528 19.95C80.6697 19.75 80.3192 19.65 79.9012 19.65C79.4967 19.65 79.1462 19.7434 78.8496 19.93C78.553 20.1167 78.3238 20.39 78.162 20.75C78.0137 21.0967 77.9395 21.5234 77.9395 22.03C77.9395 22.5367 78.0137 22.97 78.162 23.33C78.3238 23.69 78.553 23.9634 78.8496 24.15C79.1462 24.3367 79.4967 24.43 79.9012 24.43Z" fill="black" />
	<path d="M70.1169 26.97V17.11H73.1707V26.97H70.1169ZM70.0967 15.75V13.03H73.2111V15.75H70.0967Z" fill="black" />
	<path d="M62.3115 26.9701L58.2466 17.1101H61.5835L63.5452 23.0301L65.5675 17.1101H68.8438L64.799 26.9701H62.3115Z" fill="black" />
	<path d="M48 26.97V13.03H57.4647V15.83H51.1751V18.39H57.1613V21.19H51.1751V24.17H57.4647V26.97H48Z" fill="black" />
</svg>
